<?xml version="1.0" encoding="UTF-8"?>
<svg id="_圖層_1" data-name="圖層 1" xmlns="http://www.w3.org/2000/svg" viewBox="0 0 300 250">
  <defs>
    <style>
      .cls-1, .cls-2, .cls-3, .cls-4, .cls-5, .cls-6, .cls-7 {
        stroke: #272423;
        stroke-linecap: round;
        stroke-linejoin: round;
      }

      .cls-1, .cls-8 {
        fill: none;
      }

      .cls-2 {
        fill: #4773b3;
      }

      .cls-3 {
        fill: #df4a23;
      }

      .cls-4 {
        fill: #41434b;
      }

      .cls-9 {
        fill: #eb749e;
      }

      .cls-5, .cls-10 {
        fill: #272423;
      }

      .cls-6 {
        fill: #fffbf8;
      }

      .cls-7 {
        fill: #f4c3cb;
      }

      .cls-11 {
        fill: #040000;
      }
    </style>
  </defs>
  <rect class="cls-11" x="-10.73" y="-8.89" width="316.54" height="263.79"/>
  <g>
    <path class="cls-7" d="M89.28,153.11l9.74,18.64s-17.2,10.52-23.91,13.11c-3.74,1.45-10.29,2.28-15.47-4.3-5.18-6.57,12.53-47.79,12.53-47.79,0,0,2.2-4.06,3.58-6.39.92-1.54,4.65-.1,2.15,3.7-1.02,1.56-2.81,5.14-2.81,5.14,0,0,3.47-5.79,4.08-6.99,1-1.97,6.67-2.11,2.89,4.32-1.06,1.8-2.59,4.57-2.59,4.57,0,0,2.3-4.33,4.41-7.48,1.65-2.45,6.44-1.38,2.32,6.17-1.85,3.39-2.77,4.86-2.77,4.86,0,0,2.25-3.77,3.35-5.96,1.64-3.25,6.98-3.53,3.91,5.03-3.07,8.56-7.17,20.99-8.63,24.91-1.63,4.35.33-.68.6-1.65.27-.98,2.27-6.57,2.27-6.57l4.33-3.32Z"/>
    <polygon class="cls-7" points="164.33 118.5 165.99 136.5 156.99 153.33 140.16 155.83 137.49 138.5 140.16 115.16 164.33 118.5"/>
    <rect class="cls-6" x="140.1" y="143.31" width="24.12" height="20.5"/>
    <polygon class="cls-6" points="165.99 130.56 151.74 140.44 159.6 149.73 170.85 136.01 165.99 130.56"/>
    <polygon class="cls-6" points="138.56 129.1 151.74 140.44 139.95 151.93 132.07 136.09 138.56 129.1"/>
    <path class="cls-2" d="M149.3,153.05h5.32l1.74-7.15-4.62-5.46-5.74,5.6,3.3,7.01Z"/>
    <polygon class="cls-2" points="144.98 166.68 149.3 153.05 154.62 153.05 157.4 165.64 144.98 166.68"/>
    <path class="cls-4" d="M151.19,158.56c-.81-1.17-15.36-26.52-15.36-26.52,0,0-19.85,1.69-26.39,5.27-6.48,3.54-18.38,14-23.17,18.25-.24.21-2.93,11.08-3.67,12.92-1.17,2.92,3.67-12.92,3.67-12.92l2.58-6.08-30.67-5.5s-8.73,37.17.51,43.59c7.4,5.14,47.91-5.96,47.91-5.96l-1,21.53h90.33l2.77-23.47s23.55,21.87,25.15,22.64c8.58,4.18,21.25.91,22.33-.66,6.92-10.08-.5-46.42-.5-46.42,0,0-25.72,11.6-26.24,9.27l3.22,16.73-3.22-16.73s-11.96-16.02-30.51-25.6c-10.17-5.25-19.55-4.86-19.55-4.86l-18.2,24.53Z"/>
    <path class="cls-6" d="M202.42,150.94c.06,1.71.5,4.67,1.41,6.7,1.78,3.94,19.67-9.33,19.67-9.33,0,0,6.5-1.33,13.5-1.33h11.5s1.67-2,0-6.67-3.67-3.89-4.67-4.28c-1-.39-10.83,4.11-20.83,5.94s-19.17,3.17-20.42,4.17-.21,3.6-.16,4.8Z"/>
    <path class="cls-3" d="M219.84,141.23s.25,8.33,3.01,8.46c.99.04,1.36.22,3.86-.56,0,0,1.04-6.78-1.1-8.53,0,0-2.4.75-5.77.62Z"/>
    <path class="cls-7" d="M240.91,157.76s-5.81-12.73-6.84-15.23c-.68-1.65-4.59-.77-2.66,3.35.79,1.69,2.04,5.49,2.04,5.49,0,0-2.6-6.23-3.03-7.5-.71-2.09-6.3-3.05-3.48,3.86.79,1.93,1.9,4.9,1.9,4.9,0,0-1.65-4.62-3.29-8.03-1.28-2.66-6.17-2.29-3.18,5.77,1.34,3.62,2.05,5.21,2.05,5.21,0,0-1.68-4.05-2.46-6.38-1.16-3.45-6.4-4.5-4.59,4.42,1.81,8.91,4.07,21.8,4.96,25.89.98,4.54-.23-.72-.35-1.72-.13-1.01-2.28-12.11-2.28-12.11,0,0,.17,2.08,21.25-7.89Z"/>
    <path class="cls-8" d="M182.67,155.83c.21,8.35.8,17.33.8,17.33,0,0-1.17-8.99-.8-17.33Z"/>
    <path class="cls-7" d="M181.62,90.78c0,13.25-3,37-27,37s-27-23.75-27-37,12.09-24,27-24,27,10.75,27,24Z"/>
    <path class="cls-5" d="M153.12,59.45s-20.82-.01-27.65,14.78c-7.25,15.71-1.62,27.52,1.17,34.77,2.93,7.6,6.46,8.72,4.68,3.5-1.78-5.22-5.44-15.77-3.31-30.44,0,0,2.12,6.75,6.42,6.67,4.45-.09,5.97-2.67,7.2-8,0,0,1.29,8.08,5.19,8,7.59-.17,7.79-8.33,7.79-8.33,0,0-.18,7.94,7.14,8,6.92.06,5.52-4.99,6.11-8.33,0,0,.04,7.85,5.28,7.61,3.67-.17,6.29-5.61,6.29-5.61,0,0,2.19,2.47,2.19,9.47,0,7.8-.58,13.94-3.71,21-3.71,8.36,1.76-.79,3.71-5.8,3.2-8.19,5.5-19.7,1.25-28.57s-10.62-19.17-29.75-18.71Z"/>
    <path class="cls-9" d="M144.29,104.6c0,2.91-2.36,5.28-5.28,5.28s-5.28-2.36-5.28-5.28,2.36-5.28,5.28-5.28,5.28,2.36,5.28,5.28Z"/>
    <path class="cls-9" d="M173.15,103.72c0,2.91-2.36,5.28-5.28,5.28s-5.28-2.36-5.28-5.28,2.36-5.28,5.28-5.28,5.28,2.36,5.28,5.28Z"/>
    <path class="cls-7" d="M131.22,113.04c-4.3,3.77-8.21-1.73-9.03-6.05-1.08-5.67,6.11-5.62,6.11-5.62,0,0,.5,3.75,1.2,6.25.77,2.76,1.73,5.43,1.73,5.43Z"/>
    <path class="cls-7" d="M178.15,113.04c4.3,3.77,8.21-1.73,9.03-6.05,1.08-5.67-6.11-5.62-6.11-5.62,0,0-.5,3.75-1.2,6.25-.77,2.76-1.73,5.43-1.73,5.43Z"/>
    <path class="cls-10" d="M166.68,98.37c0,1.36-1.1,2.46-2.46,2.46h0c-1.36,0-2.46-1.1-2.46-2.46h0c0-1.36,1.1-2.46,2.46-2.46h0c1.36,0,2.46,1.1,2.46,2.46h0Z"/>
    <path class="cls-1" d="M136.67,94.37s2.92-4.25,8.58-1.67"/>
    <path class="cls-1" d="M139.01,99.78s2.92-4.25,8.58-1.67"/>
    <path class="cls-1" d="M160.58,91.34s3.91-2.42,7.93.96"/>
    <path class="cls-1" d="M152.99,98.46s3.09.07,3.25,1.4c.16,1.32-2.48,1.9-2.48,1.9"/>
    <path class="cls-1" d="M148.71,105.24s2.78,2.61,7,2.18c4.22-.43,4.97-2.28,4.97-2.28"/>
    <polygon class="cls-4" points="129.59 72.6 110.47 60.32 154.62 45.66 194.31 63.66 155.31 68.49 129.59 72.6"/>
    <path class="cls-4" d="M124.09,76.51l-1.73-15.17s23.47-4.17,34.18-3.5c10.72.67,27.22,5.7,27.22,5.7,0,0-2.36,11.46-1.85,12.3.51.83-32.82-4.17-57.82.67Z"/>
    <path class="cls-6" d="M131.81,132.59s-7.21.07-12.9,1.94c0,0,7.74,15.72,12.44,22.78,6.25,9.38,19.62,21.88,19.62,21.88,0,0,14.05-10.09,19.38-18.38,8.12-12.62,12.68-24.35,12.68-24.35,0,0-4.53-2.38-9.58-2.21,0,0-6.84,12.21-10.6,18.19-4.59,7.28-11.88,12.06-11.88,12.06,0,0-5.37-6.13-10.74-15.19-2.27-3.83-8.42-16.72-8.42-16.72Z"/>
    <path class="cls-1" d="M113.57,135.7s4.03,19.5,12.66,30.36c8.33,10.49,23.75,21.88,23.88,22.25,0,0,20.62-12.75,26.5-21.62s10.08-28.87,10.08-28.87"/>
  </g>
</svg>