<?xml version="1.0" encoding="UTF-8"?>
<svg id="_圖層_1" data-name="圖層 1" xmlns="http://www.w3.org/2000/svg" viewBox="0 0 300 250">
  <defs>
    <style>
      .cls-1 {
        fill: #85e3c5;
      }

      .cls-2 {
        fill: #040000;
      }
    </style>
  </defs>
  <rect class="cls-2" x="-8.27" y="-6" width="316.54" height="263.79"/>
  <g>
    <path class="cls-1" d="M84.96,121.8c-1.46.22-2.5-.51-3.13-2.17.44-1.66,1.31-2.53,2.62-2.6.73-.22,1.46-.25,2.19-.11.83.07,1.68-.04,2.55-.33,1.89.07,3.79.07,5.68,0v.11h7.73c1.26.07,2.53.07,3.79,0h3.35c.87.15,1.38-.43,1.53-1.74,0-1.45-.03-2.86-.07-4.23.24-1.66.19-3.25-.15-4.77-.24-.22-.51-.33-.8-.33-.58-.07-1.12-.18-1.6-.33h-3.72c-1.36-.22-2.72-.4-4.08-.54-2.19.29-4.32.25-6.41-.11-1.56-.14-2.24-1.23-2.04-3.25.53-1.08,1.34-1.55,2.41-1.41.58.07,1.17.11,1.75.11.68,0,1.34-.07,1.97-.22v.11c.15-.07.29-.11.44-.11.15.15.32.18.51.11h1.68c.44.22.87.4,1.31.54.58.07,1.17,0,1.75-.22,1.26,0,2.55.04,3.86.11,1.12.65,2.06.43,2.84-.65.05-1.3.05-2.64,0-4.01.29-1.59.12-3-.51-4.23-.73-.65-1.51-.9-2.33-.76-1.12.15-2.24.29-3.35.43-2.67.07-5.3.15-7.87.22-1.22-.07-2.43-.11-3.64-.11-1.07.36-1.97-.04-2.7-1.19-.54-1.08-.44-2.13.29-3.15,1.12-.65,2.31-.83,3.57-.54,1.07-.22,2.16-.4,3.28-.54,1.36.15,2.74.18,4.15.11,1.02.07,2.09.15,3.21.22.49-.14,1-.18,1.53-.11.44.22.87.33,1.31.33.19.36.46.36.8,0,.58,0,1.17-.07,1.75-.22.58-1.01.7-2.2.36-3.58-.24-.87-.27-1.74-.07-2.6.34-.65.78-1.19,1.31-1.63.63-.22,1.29-.22,1.97,0h2.33c.68.22,1.38.4,2.11.54.58.07,1.14.33,1.68.76.44,1.3.49,2.68.15,4.12-.24,1.52.12,2.39,1.09,2.6.53.07,1.09.18,1.68.33.73,0,1.46.04,2.19.11v-.22c1.31.07,2.62.11,3.94.11,1.41,0,2.79-.11,4.15-.33,1.26,0,2.53.11,3.79.33,1.12-.22,2.19,0,3.21.65.78,1.01.85,2.06.22,3.15-.87,1.08-1.89,1.52-3.06,1.3-1.26,0-2.5-.14-3.72-.43-1.36-.14-2.7-.22-4.01-.22-2.67,0-5.3-.07-7.87-.22-1.99,1.3-2.6,3.73-1.82,7.27-.29,1.08-.17,2.06.36,2.93,1.07.51,2.19.58,3.35.22,1.26,0,2.55-.04,3.86-.11,1.31,0,2.65.04,4.01.11,1.31-.07,2.62.11,3.94.54.68.36,1.12,1.05,1.31,2.06-.19,1.01-.61,1.66-1.24,1.95-1.75.65-3.47.69-5.17.11-.92-.14-1.82-.22-2.7-.22-.92.22-1.85.18-2.77-.11v.22c-.63-.22-1.24-.36-1.82-.43-.63.07-1.22.04-1.75-.11-.83.36-1.19,1.16-1.09,2.39-.05,1.74-.07,3.44-.07,5.1-.19,1.3.02,2.39.66,3.25.48.29,1,.36,1.53.22.68,0,1.36-.04,2.04-.11,1.36-.14,2.77-.25,4.23-.33,2.72,0,5.47-.11,8.24-.33,2.67-.36,5.34-.33,8.02.11,1.17,0,2.26.4,3.28,1.19.63,1.08.51,1.99-.36,2.71-1.07.65-2.16.87-3.28.65-.63.15-1.24.15-1.82,0-.73.15-1.43.25-2.11.33-1.12-.22-2.24-.36-3.35-.43-1.36.15-2.75.25-4.15.33-5.88.43-11.76.65-17.64.65-.58.15-1.12.25-1.6.33-.73,0-1.41-.07-2.04-.22-.68.07-1.34.04-1.97-.11-.68,0-1.31.11-1.89.33-1.31,0-2.58-.11-3.79-.33-.58.15-1.12.15-1.6,0-.49-.07-.9.04-1.24.33-.78-.79-1.63-.83-2.55-.11-1.75.29-3.5.33-5.25.11-1.7-.07-3.35-.04-4.96.11-.87.29-1.73.25-2.55-.11-.24,0-.39.07-.44.22-.19.29-.41.33-.66.11ZM95.52,173.54c-.73-.8-1.02-1.88-.87-3.25.15-2.03.27-4.08.36-6.18.1-1.95.24-3.87.44-5.75-.1-.87-.15-1.77-.15-2.71,0-1.08.05-2.17.15-3.25h-.15c.29-2.24.34-4.52.15-6.83-.05-2.6-.1-5.21-.15-7.81v-7.16c-.29-1.88,0-3.54.87-4.99.44-.29.92-.47,1.46-.54.83-.14,1.63-.33,2.41-.54,1.65-.29,3.33-.33,5.03-.11.87.15,1.75.29,2.62.43.73.07,1.51.07,2.33,0,.68.29,1.38.29,2.11,0,.73-.07,1.48-.07,2.26,0v.11c1.46-.5,2.94-.61,4.45-.33,1.6-.14,3.23-.07,4.88.22.78,0,1.53-.14,2.26-.43.78-.07,1.55-.11,2.33-.11.83-.07,1.68-.18,2.55-.33.73.29,1.46.33,2.19.11.24.65.66.91,1.24.76,1.07.29,1.75,1.16,2.04,2.6.05,1.81-.03,3.58-.22,5.31.05,2.03.17,4.05.36,6.07.05,4.12.07,8.17.07,12.15-.19,4.12-.19,8.17,0,12.15.19,1.81.36,3.62.51,5.42-.1,1.45-.63,2.28-1.6,2.49-.58.14-1.17.14-1.75,0-.44.22-.83.43-1.17.65h-1.75c-.68.14-1.36.18-2.04.11-.92-.51-1.8-1.16-2.62-1.95-1.22-.15-2.33-.58-3.35-1.3-.68-1.3-.41-2.13.8-2.49.83-.07,1.7-.11,2.62-.11,1.36-1.88,1.7-4.41,1.02-7.59.92-3.54.39-5.82-1.6-6.83-1.22.22-2.41.36-3.57.43-1.26,0-2.5.07-3.72.22-1.26.22-2.5.33-3.72.33-1.22-.14-2.36.15-3.43.87-.24-.43-.54-.54-.87-.33-.78.15-1.48.15-2.11,0-1.26.43-2.48.54-3.64.33-.1,1.16-.12,2.35-.07,3.58-.1,1.45-.19,2.82-.29,4.12-.1,1.37-.19,2.71-.29,4.01-.1,1.37-.15,2.75-.15,4.12-.29,2.02-1.17,3.07-2.62,3.15-1.85.5-3.72.9-5.61,1.19ZM107.62,136.88c1.26-.22,2.53-.33,3.79-.33,1.31-.14,2.65-.18,4.01-.11,1.41,0,2.84-.11,4.3-.33,1.36-.14,2.77-.29,4.23-.43.87.22,1.75.18,2.62-.11.68-.94.85-2.13.51-3.58,0-.79-.12-1.48-.36-2.06-.39-.36-.8-.5-1.24-.43-.73,0-1.41-.11-2.04-.33-.63-.14-1.22-.14-1.75,0-.19-.36-.46-.43-.8-.22-.78.36-1.58.43-2.41.22-1.6,0-3.18.11-4.74.33-1.6,0-3.16.04-4.66.11-1.41.36-2.79.47-4.15.33-.44,1.88-.63,3.76-.58,5.64.78,1.59,1.87,2.03,3.28,1.3ZM107.33,148.05c1.6-.29,3.25-.36,4.96-.22,1.65.15,3.28.04,4.88-.33,1.46-.22,2.96-.33,4.52-.33h2.04c.73-.43,1.51-.65,2.33-.65.53.29.95.11,1.24-.54,0-.58-.03-1.16-.07-1.74.24-1.74-.1-3.07-1.02-4.01-.34,0-.63.07-.87.22-.39.22-.78.22-1.17,0-.87.15-1.73.18-2.55.11-.87-.14-1.73-.18-2.55-.11-.92.07-1.82.18-2.7.33v-.22c-.39.07-.75.11-1.09.11-.49.29-.92.54-1.31.76-1.02.15-2.04.18-3.06.11-1.07-.07-2.11-.04-3.13.11-.49.22-.97.33-1.46.33-.49-.07-.92-.14-1.31-.22-.49.36-.68.91-.58,1.63.05,1.08.05,2.17,0,3.25.44,1.81,1.41,2.28,2.92,1.41Z"/>
    <path class="cls-1" d="M162.43,171.91c-.05-.29-.19-.36-.44-.22-.19-.29-.32-.62-.36-.98-.15-1.3,0-2.6.44-3.9.39-2.39.66-4.88.8-7.48.24-5.42.53-10.88.87-16.38.29-5.35.58-10.81.87-16.38.1-2.67.22-5.39.36-8.13.05-1.37.15-2.78.29-4.23,0-1.3.15-2.6.44-3.9h-.15c.19-1.45.29-2.96.29-4.56-.05.29.02.4.22.33-.05-.29-.07-.61-.07-.98,0-.43.02-.87.07-1.3.1-.87.19-1.77.29-2.71-.05-2.1.02-4.16.22-6.18.24-3.76.44-7.59.58-11.5.05-1.37.46-2.46,1.24-3.25.53-.29,1.09-.43,1.68-.43.63,0,1.29-.07,1.97-.22.97-.29,1.97-.22,2.99.22.78.87,1.07,2.06.87,3.58-.15,1.66-.22,3.29-.22,4.88,0,2.03-.15,3.98-.44,5.86-.58,3.83-.97,7.63-1.17,11.39-.29,3.98-.58,7.92-.87,11.82-.34,3.98-.56,7.99-.66,12.04-.24,3.98-.46,7.96-.66,11.93-.1,1.81-.17,3.58-.22,5.31v2.49c-.24.94-.29,1.84-.15,2.71-.24.22-.27.47-.07.76.05.65,0,1.27-.15,1.84-.15,1.45-.17,2.93-.07,4.45-.15,1.37-.34,2.75-.58,4.12-.29,1.52-.46,3-.51,4.45,0,.65-.12,1.16-.36,1.52-.1.72-.29,1.23-.58,1.52-.44.14-.83.22-1.17.22-.44.22-.83.43-1.17.65-.49,0-.9-.07-1.24-.22-.44,0-.78.18-1.02.54-.78-.07-1.51.04-2.19.33ZM192.23,153.03c-.58-.14-1.19-.29-1.82-.43-.63.07-1.22.07-1.75,0-1.02,0-1.7-.72-2.04-2.17-.24-1.59-.29-3.25-.15-4.99v-6.18c-.05-1.74,0-9.72.15-11.53.1-2.02.12-4.08.07-6.18v-11.82c-.15-3.98-.22-7.99-.22-12.04.05-1.81.02-3.65-.07-5.53-.29-1.88-.34-3.76-.15-5.64.19-1.52.8-2.2,1.82-2.06,1.17-.22,2.36-.22,3.57,0,.97.07,1.94.36,2.92.87.58,1.16.8,2.49.66,4.01-.15,5.57-.19,11.14-.15,16.7v7.81c-.1,2.89-.19,5.71-.29,8.46-.1,2.75.02,5.42.36,8.03-.05,1.23-.12,8.64-.22,9.79.05,1.37.1,2.75.15,4.12-.05,1.23-.05,2.42,0,3.58.15,1.16.12,2.32-.07,3.47-.68,1.3-1.6,1.88-2.77,1.74ZM215.48,172.78c-.58-.15-1.17-.22-1.75-.22-.54-.15-1.07-.29-1.6-.43-.83.58-1.56.43-2.19-.43-.39-1.52-.58-3.11-.58-4.77-.1-1.81-.1-3.65,0-5.53.1-8.17.07-16.38-.07-24.62-.44-16.41-.49-32.79-.15-49.13-.05-1.74-.1-3.47-.15-5.21-.05-1.66.41-2.93,1.38-3.8.92-.36,1.92-.43,2.99-.22,1.12,0,2.23.29,3.35.87,1.41,2.03,1.8,4.48,1.17,7.38-.29,3.98-.44,7.96-.44,11.93.1,16.34.17,32.69.22,49.03-.24,5.35-.27,10.67-.07,15.94.19,2.32.32,4.63.36,6.94-.29,2.02-1.12,2.78-2.48,2.28Z"/>
  </g>
</svg>