<?xml version="1.0" encoding="UTF-8"?>
<svg id="_圖層_1" data-name="圖層 1" xmlns="http://www.w3.org/2000/svg" viewBox="0 0 300 250">
  <defs>
    <style>
      .cls-1 {
        fill: #fff;
      }

      .cls-2 {
        fill: #85e3c5;
      }

      .cls-3 {
        fill: #040000;
      }
    </style>
  </defs>
  <rect class="cls-3" x="-10.73" y="-6" width="316.54" height="263.79"/>
  <g>
    <polygon class="cls-2" points="166.87 86.08 177.67 120.12 199.77 119.43 200.22 104.52 203.42 104.62 206.95 119.21 220.07 118.81 208.09 95.68 188.03 101.79 187.99 107.58 194.77 106.2 194.63 111.07 182.33 109.52 183.11 87.96 178.17 92.68 181.71 85.94 166.87 80.86 181.39 83.03 178.55 76.45 183.17 81.64 185.55 73.29 186.1 81.73 192.38 72.48 197.61 76.15 189.8 91.64 201.73 94.24 205.97 72.88 186.59 65.63 166.87 86.08"/>
    <path class="cls-2" d="M157.7,66.33l-11.07,2.3-8.65,25.67.5,2.26,7.05-4.94-3.8,6.77,10.11.51-9.15,3.52,4.46,8.25-6.59-4.74,2.24,10.23,4.13-24.11,10-2.24,3.43,28.17,14.13,1.41-16.79-53.07ZM147.54,88.49l1.91-11.13,5.53-3.63,1.17,9.66-8.61,5.1Z"/>
    <g>
      <polygon class="cls-1" points="119.5 87.35 108.42 95 119.23 96.47 121.09 105.38 127.6 92.94 124.63 76.45 119.5 87.35"/>
      <polygon class="cls-2" points="106.39 67.7 114.43 66.75 116.63 82.22 120.29 66.93 128.72 66 140.31 118.12 125.46 119.22 124.8 78.22 117.5 100.08 112.85 101.52 112.11 75.04 102.62 120.93 89.1 121.94 106.39 67.7"/>
      <polygon class="cls-1" points="107.03 84.43 119.98 92.85 122.61 85.29 107.03 84.43"/>
      <polygon class="cls-1" points="121.72 96.37 108.22 101.64 120.37 89.44 121.77 91.89 121.72 96.37"/>
    </g>
  </g>
  <g>
    <polygon class="cls-1" points="74.15 141.06 76.72 129.59 80.92 140.54 96.45 132.64 84.74 147.82 91.96 151.57 83.09 156.2 90.12 176.2 78.58 164.05 75.08 173.99 70.94 164.92 59.95 176.92 66.38 160.59 56.36 160.04 66.43 154.42 62.32 148.25 70.42 147 66.6 136.72 74.15 141.06"/>
    <polygon class="cls-2" points="134.45 183.18 127.99 183.2 126.78 165.67 131.45 133.59 139.08 133.98 142.26 137.36 134.69 140.23 142.82 140.54 137.14 146.96 144.1 143.17 148.14 177.02 147.84 143.16 154.47 147.73 149.3 140.49 157.23 139.46 150.44 137.19 154.37 134.75 159.9 135.03 156.1 154.85 154.83 183.31 144.83 184.37 137.86 150.77 134.45 183.18"/>
    <polygon class="cls-2" points="190.59 147.5 187.83 136.11 213.1 128.18 214.13 134.13 200.71 141.75 203.12 152.33 216.05 145.19 217.56 153.87 204.91 160.22 207.92 173.45 218.66 167.78 220.39 177.94 201.11 180.83 194.22 145.43 190.59 147.5"/>
    <g>
      <polygon class="cls-2" points="216.74 137.94 228.4 126.28 239.05 126.28 249.36 136.84 245.2 148.28 234.85 150.03 260.27 171.74 247.15 179.97 229.71 151.02 224.81 151.98 234.36 181.08 224.34 181.82 216.74 137.94"/>
      <polygon class="cls-1" points="232.93 131.94 238.63 125.61 237.53 133.16 248.36 131.66 239.18 136.77 246.53 141.7 234.29 140.35 228.84 146.22 230.54 139.32 223.64 140.53 230.49 136.15 223.5 133.68 232.93 131.94"/>
    </g>
    <path class="cls-2" d="M121.98,132.42l-16.77-2.62-8.26,18.17,1.87,2.92-9.67,24.37-5.97,3.01-.65,1.44,14.56,1.58,5.35-22.08,10.35-.81-.65,24.53,13.35,1.45-3.51-51.95ZM104.41,151.06l3.55-14.61,5.42-.27-.32,11.95-8.65,2.92Z"/>
    <polygon class="cls-2" points="199.09 181.82 192.88 149.93 165.14 159.82 166.32 167.7 177.04 162.47 182.86 169.96 179.05 175.96 171.31 177.36 166.32 167.7 162.06 172.66 163.81 167.55 154.83 170.83 163.61 165.14 154.94 162.73 164.12 162.47 161.19 157.99 165.14 159.82 173.61 141.49 181.02 143.62 177.14 153.23 184.87 150.57 185.7 134.73 173.57 130.49 161.91 138 158.5 155.83 161.11 182.3 181.37 184.37 188.97 168.81 182.41 160.06 189.61 156.83 189.9 183.55 199.09 181.82"/>
    <path class="cls-2" d="M80.59,129.63l-17.24-3.35-13.95,46.63,19.98,10,17.56-8.87,9.11-22.98-15.47-21.43ZM81.37,171.78l-12.31,3.27-6.48-2.93,5.26-33.36h8.57l6.94,16.08-1.98,16.94Z"/>
    <polygon class="cls-1" points="74.15 141.06 76.72 129.59 80.92 140.54 96.45 132.64 84.74 147.82 91.96 151.57 83.09 156.2 90.12 176.2 78.58 164.05 75.08 173.99 70.94 164.92 74.15 141.06"/>
  </g>
</svg>