<?xml version="1.0" encoding="UTF-8"?>
<svg id="_圖層_1" data-name="圖層 1" xmlns="http://www.w3.org/2000/svg" viewBox="0 0 300 250">
  <defs>
    <style>
      .cls-1 {
        fill: #85e3c5;
      }

      .cls-2 {
        fill: #040000;
      }
    </style>
  </defs>
  <rect class="cls-1" x="-4.05" y="-4.9" width="311.77" height="259.8"/>
  <g>
    <path class="cls-2" d="M250.06,134.23c-2.38-2.7-12.94-11.94-24.2-17.99.05-.57.05-1.15-.04-1.72-.24-1.46-7.14-25.13-14.6-29.34-4.98-2.81-15.39-3.26-23-3.16,2.67-7.92,4.49-19.11-4.11-23.61-5.07-2.66-9.96-2.88-13.91-2.13-1.09-3.12-3.13-6.41-6.66-8.99-4.48-3.28-9.91-3.31-14.46-2.23-1.03-2.69-2.8-4.99-5.22-6.69-4.77-3.35-11.34-3.84-16.74-1.25-7.07,3.39-23.63,17.63-40.83,49.47-13.76,25.47-20.58,47.96-21.09,58.07-.56,10.97,35.17,46.95,43.34,52.85,1.41,1.02,4.36,3.14,7.59,1.88.89-.35,2.17-.95,3.93-1.78,3.67-1.73,14.84-6.98,18.16-6.6,1.94.23,7.03,2.5,11.12,4.32,7.29,3.24,14.18,6.31,19.15,6.31.07,0,.14,0,.21,0,9.68-.17,25.14-9.69,29.64-12.6,4.8-3.1,7.67-7.17,8.39-11.57.43.02.83.07,1.28.07,14.01,0,36.57-10.52,40.59-14.97,4.9-5.42,7.46-21.47,1.44-28.32ZM192.69,180.24c-9.83,6.35-19.77,10.85-24.15,10.92-2.63.09-10.04-3.24-14.92-5.41-5.7-2.54-10.63-4.73-14.14-5.15-.46-.05-.93-.08-1.43-.08-5.79,0-13.91,3.59-22.43,7.61-.47.22-.93.44-1.36.64-8.5-6.09-36.77-37.17-38.57-43.9.6-9.22,7.69-30.85,19.83-53.32,16.55-30.64,31.7-42.87,36.14-45.01,1.98-.95,4.53-.79,6.19.38,1.14.8,1.72,2.05,1.79,3.68l-22.54,32.45c-1.65,2.37-1.06,5.63,1.31,7.28.91.63,1.95.94,2.98.94,1.66,0,3.28-.78,4.3-2.25l22.7-32.67c2.23-1.03,6.53-2.42,8.98-.63,2.61,1.91,3.27,4.59,3.42,6.07l-23.21,32.79c-1.67,2.36-1.11,5.62,1.25,7.29.92.65,1.97.96,3.02.96,1.64,0,3.25-.77,4.28-2.21l23.53-33.24c1.49-.75,5.16-2.05,9.6.28,1.77.93.31,9.6-3.67,17.55-.85,1.68-.72,3.68.32,5.25,1.04,1.57,2.85,2.45,4.72,2.32,9.62-.67,21.91-.31,25.31,1.43,2.12,1.95,6.01,11.22,8.13,17.27-2.36-.57-4.64-.83-6.74-.67-.61.05-1.26.13-1.9.21-6.07-6.65-13.56-12.34-24.58-8.24-2.91,1.08-12.23,5.21-20.61,9.83-13.41,7.4-18.88,12.67-18.88,18.22,0,8.01,12.45,40.08,24.53,42.17,6.46,1.12,13.26-.32,19.25-1.59,1.05-.22,2.06-.43,3.04-.62,2.76,1.52,5.56,2.91,8.25,4.02.19,1.87-1.06,3.69-3.74,5.42ZM169.13,123.41c-.67.3-1.22.54-1.63.72-3.26,1.42-5.24,5.21-6.06,11.6-.2,1.55-1.79,15.31,3.96,19.83.96.75,4.68,3.63,9.68,7.07-2.6.34-5.12.46-7.29.09-4.76-1.74-15.51-24.23-15.96-31.43,2.61-4.44,23.5-15.29,32.66-18.7,2.95-1.1,5.36-1.15,8.74,1.34-9.58,3.02-19.4,7.38-24.11,9.47ZM240.91,155.5c-3,2.92-24.43,12.62-34.34,11.49-.78-.09-1.65-.29-2.56-.55-3.86-1.09-8.81-3.56-13.89-6.57-6.44-3.82-13.06-8.48-17.85-12.21-1.15-2.62-.91-11.41.34-14.34.24-.1.49-.22.77-.34,4.95-2.2,18.13-8.06,28.36-10.59,2.33-.58,4.51-.98,6.4-1.13,2.86-.22,6.83,1.16,11.07,3.3,9.3,4.69,19.91,13.09,22.99,16.59,1.87,2.13.63,12.15-1.29,14.36Z"/>
    <path class="cls-2" d="M207.92,159.6c-7.75,0-14.25-6.1-14.65-13.93-.41-8.08,5.83-14.99,13.91-15.41,8.08-.39,14.99,5.83,15.41,13.91.2,3.92-1.14,7.67-3.77,10.58-2.63,2.91-6.23,4.62-10.15,4.82-.25.01-.51.02-.76.02ZM207.93,140.71c-.07,0-.14,0-.22,0-1.12.06-2.16.55-2.91,1.38-.75.84-1.14,1.91-1.08,3.04.06,1.12.55,2.16,1.38,2.91.84.75,1.91,1.14,3.04,1.08,1.12-.06,2.16-.55,2.91-1.38.75-.84,1.14-1.91,1.08-3.04-.11-2.25-1.98-4-4.21-4Z"/>
  </g>
</svg>