<?xml version="1.0" encoding="UTF-8"?>
<svg xmlns="http://www.w3.org/2000/svg" viewBox="0 0 400 400">
  <defs>
    <style>
      .cls-1 {
        fill: #1c2039;
      }

      .cls-2 {
        fill: #fff;
      }
    </style>
  </defs>
  <g id="_圖層_5" data-name="圖層 5">
    <rect class="cls-2" x="-100.26" y="-52.77" width="566.81" height="514.72"/>
  </g>
  <g id="_圖層_3" data-name="圖層 3">
    <g>
      <path class="cls-1" d="M347.12,225.46c-3.86-4.39-21-19.37-39.27-29.18.08-.93.09-1.87-.06-2.79-.39-2.37-11.58-40.78-23.68-47.61-8.09-4.57-24.98-5.3-37.32-5.13,4.33-12.86,7.28-31-6.67-38.31-8.23-4.32-16.17-4.68-22.57-3.45-1.77-5.06-5.07-10.4-10.8-14.59-7.28-5.32-16.07-5.37-23.46-3.61-1.67-4.36-4.54-8.1-8.48-10.86-7.74-5.44-18.39-6.24-27.15-2.03-11.47,5.5-38.33,28.6-66.24,80.26-22.32,41.33-33.39,77.81-34.22,94.22-.9,17.8,57.06,76.18,70.33,85.74,2.29,1.65,7.07,5.09,12.31,3.04,1.45-.57,3.52-1.54,6.38-2.89,5.95-2.81,24.07-11.33,29.47-10.71,3.14.37,11.4,4.05,18.04,7,11.82,5.26,23,10.24,31.07,10.24.11,0,.23,0,.34,0,15.71-.28,40.79-15.71,48.1-20.44,7.78-5.03,12.45-11.63,13.62-18.77.69.04,1.35.11,2.08.11,22.73,0,59.34-17.07,65.86-24.29,7.95-8.8,12.1-34.83,2.33-45.96ZM254.02,300.09c-15.96,10.31-32.07,17.6-39.19,17.72-4.27.15-16.29-5.25-24.2-8.77-9.26-4.12-17.25-7.68-22.95-8.35-.74-.09-1.52-.13-2.32-.13-9.39,0-22.57,5.83-36.39,12.35-.76.36-1.51.71-2.21,1.04-13.79-9.88-59.66-60.31-62.58-71.22.98-14.96,12.48-50.05,32.17-86.51,26.85-49.71,51.44-69.56,58.64-73.02,3.21-1.54,7.34-1.28,10.05.62,1.86,1.3,2.8,3.33,2.9,5.97l-36.58,52.65c-2.68,3.85-1.72,9.14,2.13,11.82,1.48,1.03,3.16,1.52,4.84,1.52,2.69,0,5.33-1.27,6.98-3.65l36.83-53.01c3.61-1.68,10.59-3.93,14.58-1.02,4.24,3.1,5.3,7.45,5.55,9.85l-37.66,53.2c-2.71,3.83-1.8,9.12,2.03,11.83,1.49,1.06,3.2,1.56,4.9,1.56,2.66,0,5.28-1.25,6.94-3.59l38.18-53.94c2.41-1.21,8.37-3.32,15.57.45,2.87,1.5.5,15.58-5.95,28.47-1.37,2.73-1.17,5.98.52,8.52,1.69,2.54,4.62,3.97,7.66,3.77,15.61-1.08,35.55-.5,41.07,2.31,3.44,3.16,9.75,18.21,13.19,28.02-3.83-.92-7.52-1.35-10.93-1.08-.99.08-2.04.21-3.09.35-9.85-10.78-22-20.03-39.88-13.37-4.72,1.76-19.85,8.45-33.44,15.94-21.75,12-30.63,20.56-30.64,29.56-.01,13,20.2,65.03,39.8,68.42,10.48,1.81,21.51-.52,31.24-2.57,1.7-.36,3.34-.7,4.93-1.01,4.48,2.47,9.01,4.72,13.39,6.53.31,3.03-1.71,5.98-6.07,8.79ZM215.8,207.89c-1.09.48-1.98.88-2.65,1.17-5.29,2.3-8.51,8.45-9.84,18.82-.32,2.52-2.9,24.85,6.43,32.18,1.55,1.22,7.59,5.9,15.71,11.48-4.23.55-8.31.74-11.82.14-7.73-2.83-25.16-39.32-25.89-50.99,4.23-7.2,38.13-24.8,53-30.34,4.78-1.78,8.7-1.87,14.18,2.18-15.55,4.9-31.48,11.97-39.12,15.36ZM332.26,259.96c-4.87,4.73-39.65,20.47-55.71,18.64-1.26-.14-2.67-.48-4.15-.89-6.26-1.77-14.29-5.77-22.54-10.66-10.44-6.19-21.19-13.75-28.96-19.81-1.86-4.25-1.47-18.51.56-23.27.38-.17.8-.35,1.24-.55,8.03-3.57,29.42-13.08,46.01-17.18,3.78-.93,7.32-1.59,10.38-1.83,4.64-.35,11.08,1.87,17.97,5.35,15.09,7.61,32.31,21.24,37.3,26.92,3.04,3.46,1.01,19.71-2.1,23.3Z"/>
      <path class="cls-1" d="M278.74,266.61c-12.58,0-23.12-9.9-23.77-22.6-.67-13.11,9.46-24.33,22.57-25,13.12-.63,24.33,9.46,25,22.57.32,6.35-1.85,12.45-6.11,17.17-4.26,4.72-10.11,7.5-16.46,7.82-.41.02-.82.03-1.23.03ZM278.75,235.96c-.12,0-.23,0-.35,0-1.82.09-3.5.89-4.73,2.25-1.22,1.36-1.85,3.11-1.75,4.93.09,1.82.89,3.5,2.25,4.73,1.36,1.22,3.1,1.85,4.93,1.75,1.83-.09,3.5-.89,4.73-2.25,1.22-1.35,1.85-3.11,1.75-4.93-.19-3.65-3.21-6.49-6.83-6.49Z"/>
    </g>
  </g>
</svg>