<?xml version="1.0" encoding="UTF-8"?>
<svg xmlns="http://www.w3.org/2000/svg" viewBox="0 0 300 250">
  <defs>
    <style>
      .cls-1 {
        fill: #1c2039;
      }

      .cls-2 {
        fill: #fff;
      }
    </style>
  </defs>
  <g id="_圖層_5" data-name="圖層 5">
    <rect class="cls-1" x="-79.79" width="419.74" height="250"/>
  </g>
  <g id="_圖層_3" data-name="圖層 3">
    <g>
      <path class="cls-2" d="M248.73,141.99c-2.51-2.86-13.81-12.73-25.68-19,.11-.7.15-1.39.04-2.08-.42-2.57-7.77-26.21-14.94-30.26-5.34-3.01-16.91-3.36-24.87-3.2,2.91-8.12,5.34-20.23-3.57-24.9-5.72-3-10.93-2.89-14.77-2-.96-3.16-2.94-6.83-6.92-9.74-4.98-3.64-10.85-3.19-15.21-2.01-.98-2.98-2.83-5.51-5.44-7.35-4.78-3.36-11.37-3.85-16.79-1.25-7.34,3.52-24.56,18.35-42.52,51.61-14.39,26.64-21.52,50.12-22.05,60.65-.55,11.03,36.92,48.86,45.19,54.82,1.48,1.06,4.23,3.05,7.23,1.88.91-.36,2.24-.98,4.07-1.85,4.31-2.04,15.76-7.46,19.5-7,2.15.25,7.33,2.56,11.9,4.6,7.57,3.37,14.73,6.56,19.79,6.56.07,0,.14,0,.21,0,9.96-.18,26.03-10.07,30.72-13.1,5.08-3.28,8.04-7.64,8.56-12.31.68.06,1.35.11,2.07.11,14.5,0,37.84-10.86,41.99-15.47,4.85-5.37,7.47-21.9,1.5-28.7ZM189.5,190.44c-10.61,6.85-20.97,11.51-25.78,11.6-2.97.09-10.5-3.3-16-5.75-5.93-2.64-11.06-4.92-14.63-5.34-.44-.05-.9-.08-1.37-.08-5.95,0-14.72,3.89-23.25,7.92-.65.31-1.28.61-1.84.87-8.56-5.82-39.73-39.92-41.21-46.92.58-9.69,8.07-32.65,20.92-56.45,15.63-28.94,31.47-44.32,38.31-47.6,2.32-1.11,5.32-.92,7.3.46,1.48,1.04,2.22,2.62,2.24,4.71l-23.85,34.33c-1.48,2.14-.96,5.07,1.18,6.55.82.57,1.76.84,2.68.84,1.49,0,2.96-.71,3.87-2.02l23.94-34.47c2-.94,7.23-3.03,10.44-.69,3.17,2.32,3.82,5.59,3.94,7.23l-24.54,34.67c-1.5,2.12-1,5.06,1.12,6.57.83.58,1.78.87,2.72.87,1.48,0,2.93-.69,3.85-1.99l24.82-35.06c1.54-.8,5.86-2.49,10.98.2,2.74,1.43.31,11.83-3.52,19.47-.76,1.51-.65,3.32.29,4.72.94,1.41,2.56,2.21,4.25,2.09,8.95-.62,23.3-.51,27.05,1.6,2.38,1.86,7.17,13.45,9.33,19.92-2.9-.82-5.69-1.22-8.22-1.02-.76.06-1.56.15-2.37.27-6.25-6.91-13.94-12.94-25.23-8.74-3.04,1.13-12.78,5.44-21.54,10.27-17.11,9.44-19.42,14.62-19.42,18.44,0,8.28,12.75,41.37,25.11,43.51,6.64,1.15,13.7-.34,19.93-1.66,1.2-.25,2.36-.5,3.47-.71,3.1,1.72,6.24,3.28,9.25,4.49.52,2.44-.88,4.76-4.2,6.9ZM160.89,163.26c1.1.87,5.72,4.45,11.78,8.52-3.5.57-6.99.88-9.99.36-5.08-1.37-17.02-26.37-17.32-33.95,2.14-4.61,24.78-16.43,34.82-20.17,4.04-1.5,7.1-1,11.12,2.44-10.45,3.15-21.5,8.07-26.67,10.36-.71.32-1.29.57-1.72.76-3.15,1.37-5.08,5.15-5.9,11.56-.2,1.59-1.83,15.63,3.87,20.11ZM240.26,164.36c-2.99,3.05-26.09,13.51-36.7,12.29-.94-.11-1.99-.36-3.11-.69-4.01-1.19-9.05-3.71-14.23-6.76-6.95-4.1-14.12-9.14-19.24-13.14-1.42-2.68-1.13-13.16.4-16.15.32-.14.69-.3,1.09-.48,5.28-2.35,19.44-8.64,30.33-11.26,2.33-.56,4.52-.96,6.43-1.11,3.07-.24,7.25,1.15,11.7,3.35,9.97,4.93,21.32,13.93,24.72,17.8,2.4,2.73.67,13.87-1.4,16.15Z"/>
      <path class="cls-2" d="M205.06,167.33c-3.63,0-7.08-1.32-9.79-3.77-2.9-2.62-4.61-6.21-4.81-10.11-.2-3.9,1.13-7.65,3.75-10.55,2.62-2.9,6.21-4.61,10.11-4.81,3.9-.2,7.65,1.13,10.55,3.75,2.9,2.62,4.61,6.21,4.81,10.11.2,3.9-1.13,7.65-3.75,10.55-2.62,2.9-6.21,4.61-10.11,4.81-.25.01-.51.02-.76.02ZM205.08,147.49c-.09,0-.18,0-.27,0-1.39.07-2.67.68-3.6,1.71-.93,1.03-1.41,2.37-1.34,3.76.07,1.39.68,2.67,1.71,3.6,1.03.93,2.38,1.41,3.76,1.34,1.39-.07,2.67-.68,3.6-1.71.93-1.03,1.41-2.37,1.34-3.76h0c-.07-1.39-.68-2.67-1.71-3.6-.97-.87-2.19-1.34-3.49-1.34Z"/>
    </g>
  </g>
</svg>