<?xml version="1.0" encoding="UTF-8"?>
<svg id="_圖層_1" data-name="圖層 1" xmlns="http://www.w3.org/2000/svg" viewBox="0 0 300 250">
  <defs>
    <style>
      .cls-1 {
        fill: #85e3c5;
      }

      .cls-2 {
        fill: #040000;
      }
    </style>
  </defs>
  <rect class="cls-2" x="-4.63" y="-7.38" width="312.91" height="260.76"/>
  <g>
    <path class="cls-1" d="M247.83,130.71c-2.36-2.69-12.99-11.98-24.16-17.88.1-.65.14-1.31.03-1.96-.4-2.42-7.31-24.66-14.06-28.47-5.02-2.84-15.91-3.16-23.4-3.01,2.74-7.64,5.03-19.03-3.36-23.43-5.38-2.82-10.28-2.72-13.9-1.88-.91-2.98-2.76-6.42-6.51-9.17-4.69-3.43-10.21-3.01-14.31-1.89-.92-2.8-2.66-5.19-5.12-6.92-4.5-3.16-10.69-3.62-15.79-1.18-6.91,3.31-23.1,17.27-40,48.56-13.54,25.07-20.25,47.15-20.75,57.06-.52,10.37,34.74,45.97,42.52,51.57,1.39,1,3.98,2.87,6.8,1.76.86-.34,2.11-.92,3.83-1.74,4.06-1.92,14.83-7.02,18.35-6.59,2.02.24,6.9,2.41,11.2,4.32,7.13,3.17,13.86,6.17,18.62,6.17.07,0,.13,0,.2,0,9.37-.17,24.49-9.48,28.9-12.33,4.78-3.09,7.56-7.19,8.06-11.58.64.05,1.27.1,1.95.1,13.64,0,35.6-10.22,39.51-14.55,4.57-5.06,7.03-20.61,1.41-27ZM192.1,176.29c-9.98,6.44-19.72,10.83-24.25,10.91-2.79.08-9.88-3.1-15.05-5.41-5.58-2.49-10.4-4.63-13.76-5.03-.41-.05-.84-.07-1.29-.07-5.6,0-13.85,3.66-21.88,7.45-.61.29-1.21.57-1.73.81-8.05-5.48-37.38-37.55-38.77-44.14.55-9.12,7.59-30.71,19.69-53.11,14.7-27.22,29.61-41.69,36.04-44.78,2.19-1.05,5.01-.87,6.86.44,1.39.98,2.09,2.47,2.11,4.43l-22.43,32.29c-1.4,2.01-.9,4.77,1.11,6.17.77.54,1.65.79,2.52.79,1.4,0,2.78-.66,3.64-1.9l22.53-32.43c1.88-.89,6.81-2.85,9.82-.65,2.98,2.18,3.59,5.26,3.7,6.8l-23.09,32.61c-1.41,2-.94,4.76,1.06,6.18.78.55,1.67.81,2.56.81,1.39,0,2.76-.65,3.62-1.87l23.35-32.98c1.45-.75,5.51-2.34,10.33.18,2.58,1.35.29,11.13-3.31,18.32-.72,1.42-.61,3.12.27,4.45.88,1.32,2.41,2.08,4,1.97,8.42-.58,21.92-.48,25.45,1.51,2.24,1.75,6.74,12.66,8.78,18.74-2.73-.77-5.35-1.15-7.74-.96-.72.06-1.46.14-2.23.25-5.88-6.5-13.12-12.18-23.73-8.23-2.86,1.06-12.02,5.12-20.26,9.66-16.1,8.88-18.27,13.75-18.27,17.35,0,7.79,11.99,38.92,23.62,40.93,6.25,1.08,12.89-.32,18.75-1.56,1.13-.24,2.22-.47,3.26-.67,2.91,1.61,5.87,3.08,8.7,4.23.49,2.29-.82,4.48-3.95,6.5ZM165.19,150.72c1.04.81,5.38,4.18,11.08,8.02-3.3.54-6.58.82-9.4.34-4.78-1.29-16.02-24.81-16.29-31.94,2.01-4.34,23.31-15.46,32.76-18.98,3.8-1.42,6.68-.94,10.47,2.3-9.83,2.97-20.23,7.59-25.09,9.75-.67.3-1.21.54-1.62.72-2.96,1.29-4.78,4.84-5.55,10.88-.19,1.49-1.72,14.71,3.64,18.92ZM239.86,151.76c-2.82,2.87-24.55,12.71-34.53,11.56-.88-.1-1.87-.34-2.92-.65-3.78-1.12-8.52-3.49-13.38-6.36-6.54-3.86-13.28-8.6-18.1-12.36-1.33-2.53-1.06-12.38.38-15.2.3-.13.65-.29,1.03-.46,4.97-2.21,18.29-8.13,28.53-10.59,2.19-.53,4.25-.91,6.05-1.05,2.89-.23,6.82,1.08,11.01,3.15,9.38,4.64,20.06,13.1,23.26,16.75,2.26,2.57.63,13.05-1.31,15.2Z"/>
    <path class="cls-1" d="M206.74,154.55c-3.41,0-6.66-1.25-9.21-3.55-2.73-2.46-4.33-5.84-4.52-9.51-.19-3.67,1.07-7.2,3.53-9.92,2.46-2.73,5.84-4.33,9.51-4.52,3.67-.19,7.2,1.07,9.92,3.53,2.73,2.46,4.33,5.84,4.52,9.51.19,3.67-1.07,7.2-3.53,9.92-2.46,2.73-5.84,4.33-9.51,4.52-.24.01-.48.02-.72.02ZM206.76,135.88c-.09,0-.17,0-.26,0-1.31.07-2.51.64-3.39,1.61-.88.97-1.32,2.23-1.26,3.53.07,1.31.64,2.51,1.61,3.39.97.88,2.24,1.32,3.53,1.26,1.31-.07,2.51-.64,3.39-1.61.88-.97,1.32-2.23,1.26-3.53h0c-.07-1.31-.64-2.51-1.61-3.39-.91-.82-2.06-1.26-3.28-1.26Z"/>
  </g>
</svg>