<?xml version="1.0" encoding="UTF-8"?>
<svg xmlns="http://www.w3.org/2000/svg" viewBox="0 0 300 250">
  <defs>
    <style>
      .cls-1 {
        fill: #1c2039;
      }

      .cls-2 {
        fill: #fff;
      }
    </style>
  </defs>
  <g id="_圖層_5" data-name="圖層 5">
    <rect class="cls-2" x="-79.79" width="419.74" height="250"/>
  </g>
  <g id="_圖層_3" data-name="圖層 3">
    <g>
      <path class="cls-1" d="M250.46,141.68c-2.53-2.88-13.76-12.69-25.73-19.12.05-.61.06-1.22-.04-1.83-.26-1.55-7.59-26.71-15.52-31.19-5.3-2.99-16.36-3.47-24.45-3.36,2.84-8.42,4.77-20.31-4.37-25.1-5.39-2.83-10.59-3.07-14.78-2.26-1.16-3.31-3.32-6.81-7.07-9.56-4.77-3.49-10.53-3.52-15.37-2.37-1.09-2.86-2.98-5.3-5.55-7.11-5.07-3.56-12.05-4.09-17.79-1.33-7.52,3.6-25.11,18.73-43.39,52.58-14.62,27.07-21.87,50.98-22.42,61.73-.59,11.66,37.38,49.91,46.07,56.17,1.5,1.08,4.63,3.34,8.07,1.99.95-.37,2.3-1.01,4.18-1.89,3.9-1.84,15.77-7.42,19.31-7.02,2.06.24,7.47,2.65,11.82,4.59,7.75,3.45,15.07,6.71,20.35,6.71.08,0,.15,0,.23,0,10.29-.18,26.72-10.29,31.51-13.39,5.1-3.29,8.15-7.62,8.92-12.29.45.02.89.07,1.36.07,14.89,0,38.87-11.18,43.15-15.91,5.21-5.77,7.93-22.82,1.53-30.11ZM189.47,190.57c-10.45,6.75-21.01,11.53-25.67,11.61-2.8.1-10.67-3.44-15.86-5.75-6.06-2.7-11.3-5.03-15.03-5.47-.49-.06-.99-.09-1.52-.09-6.15,0-14.79,3.82-23.84,8.09-.5.24-.99.47-1.44.68-9.03-6.47-39.08-39.51-41-46.66.64-9.8,8.18-32.79,21.08-56.67,17.59-32.56,33.7-45.57,38.42-47.84,2.1-1.01,4.81-.84,6.58.4,1.22.85,1.83,2.18,1.9,3.91l-23.96,34.49c-1.75,2.52-1.13,5.99,1.39,7.74.97.67,2.07.99,3.17.99,1.76,0,3.49-.83,4.57-2.39l24.13-34.73c2.37-1.1,6.94-2.58,9.55-.67,2.78,2.03,3.47,4.88,3.64,6.45l-24.67,34.85c-1.77,2.51-1.18,5.98,1.33,7.75.98.69,2.1,1.02,3.21,1.02,1.74,0,3.46-.82,4.54-2.35l25.01-35.34c1.58-.79,5.48-2.18,10.2.3,1.88.99.33,10.21-3.9,18.65-.9,1.79-.77,3.91.34,5.58,1.11,1.66,3.03,2.6,5.02,2.47,10.23-.71,23.29-.32,26.9,1.52,2.25,2.07,6.39,11.93,8.64,18.36-2.51-.6-4.93-.88-7.16-.71-.65.05-1.33.14-2.02.23-6.46-7.06-14.42-13.12-26.13-8.76-3.09,1.15-13,5.53-21.91,10.44-14.25,7.86-20.07,13.47-20.07,19.36,0,8.52,13.24,42.6,26.07,44.82,6.87,1.19,14.09-.34,20.47-1.69,1.11-.24,2.19-.46,3.23-.66,2.94,1.62,5.91,3.09,8.77,4.27.2,1.98-1.12,3.92-3.98,5.76ZM164.43,130.17c-.71.32-1.3.58-1.73.77-3.46,1.5-5.57,5.54-6.45,12.33-.21,1.65-1.9,16.28,4.21,21.08,1.02.8,4.97,3.86,10.29,7.52-2.77.36-5.44.49-7.75.09-5.06-1.85-16.48-25.76-16.96-33.41,2.77-4.72,24.98-16.25,34.72-19.87,3.13-1.16,5.7-1.23,9.29,1.43-10.19,3.21-20.62,7.84-25.63,10.06ZM240.73,164.28c-3.19,3.1-25.97,13.41-36.5,12.21-.82-.09-1.75-.31-2.72-.59-4.1-1.16-9.36-3.78-14.76-6.98-6.84-4.06-13.88-9.01-18.97-12.98-1.22-2.78-.97-12.12.36-15.25.25-.11.52-.23.81-.36,5.26-2.34,19.27-8.57,30.14-11.26,2.48-.61,4.79-1.04,6.8-1.2,3.04-.23,7.26,1.23,11.77,3.5,9.89,4.99,21.17,13.91,24.43,17.63,1.99,2.27.66,12.91-1.38,15.26Z"/>
      <path class="cls-1" d="M205.67,168.64c-8.24,0-15.15-6.48-15.57-14.81-.44-8.59,6.2-15.94,14.79-16.38,8.59-.41,15.94,6.2,16.38,14.79.21,4.16-1.21,8.16-4,11.25s-6.62,4.91-10.79,5.13c-.27.01-.54.02-.8.02ZM205.68,148.56c-.08,0-.15,0-.23,0-1.19.06-2.29.58-3.1,1.47-.8.89-1.21,2.04-1.15,3.23.06,1.19.58,2.29,1.47,3.1.89.8,2.03,1.21,3.23,1.15,1.2-.06,2.29-.58,3.1-1.47.8-.89,1.21-2.04,1.15-3.23-.12-2.39-2.1-4.25-4.47-4.25Z"/>
    </g>
  </g>
</svg>